<svg xmlns="http://www.w3.org/2000/svg" width="26" height="26" viewBox="0 0 26 26">
    <path fill="#0068FF" fill-rule="nonzero" d="M2.285 0A2.288 2.288 0 0 0 0 2.285v1.161c0 1.88.647 3.723 1.821 5.191.977 1.221 2.366 2.177 3.912 2.693l.808.269a7.588 7.588 0 0 0 4.174 3.264v1.184c0 .42-.342.762-.762.762a2.288 2.288 0 0 0-2.285 2.285v.761h-.762a.762.762 0 0 0-.761.762v3.86h-.762a.762.762 0 1 0 0 1.523h15.234a.762.762 0 1 0 0-1.523h-.762v-3.86a.762.762 0 0 0-.761-.762h-.762v-.761a2.288 2.288 0 0 0-2.285-2.285.763.763 0 0 1-.762-.762v-1.184a7.588 7.588 0 0 0 4.171-3.259l.851-.27.01-.004a8.294 8.294 0 0 0 3.862-2.693A8.339 8.339 0 0 0 26 3.446v-1.16A2.288 2.288 0 0 0 23.715 0H2.285zm0 1.523h2.416L5.476 8.5c.046.408.125.807.233 1.194-1.065-.448-2.01-1.148-2.698-2.008a6.811 6.811 0 0 1-1.488-4.24v-1.16c0-.42.342-.763.762-.763zm3.949 0h13.532l-.757 6.81a6.043 6.043 0 0 1-4.656 5.206.761.761 0 0 0-.591.742v1.766a2.288 2.288 0 0 0 2.285 2.285c.42 0 .762.342.762.762v.761H9.19v-.761c0-.42.342-.762.762-.762a2.288 2.288 0 0 0 2.285-2.285V14.28a.761.761 0 0 0-.59-.742A6.043 6.043 0 0 1 6.99 8.332l-.757-6.809zm15.065 0h2.416c.42 0 .762.342.762.762v1.161c0 1.535-.529 3.04-1.488 4.24a6.77 6.77 0 0 1-2.705 2.031c.112-.394.193-.8.24-1.217l.775-6.977zM13 3.047a.762.762 0 0 0-.68.418l-.762 1.508-1.712.243a.762.762 0 0 0-.418 1.306l1.228 1.168-.29 1.645a.762.762 0 0 0 1.099.81L13 9.356l1.535.789a.762.762 0 0 0 1.099-.81l-.29-1.645 1.228-1.168a.762.762 0 0 0-.418-1.306l-1.712-.243-.762-1.508a.762.762 0 0 0-.68-.418zm0 2.45l.262.518a.761.761 0 0 0 .572.41l.548.078-.384.365a.76.76 0 0 0-.225.684l.095.537-.52-.266a.762.762 0 0 0-.696 0l-.52.266.095-.537a.762.762 0 0 0-.225-.684l-.384-.365.548-.078a.76.76 0 0 0 .572-.41L13 5.497zM7.668 21.38h10.664v3.098H7.668v-3.098z"/>
</svg>
