<svg xmlns="http://www.w3.org/2000/svg" width="21" height="28" viewBox="0 0 21 28">
    <path fill="#0068FF" fill-rule="nonzero" d="M20.192 4.925c-2.06 0-7.212-2.24-9.062-4.629-.024-.024-.048-.04-.073-.065-.024-.025-.032-.058-.064-.075-.016-.016-.04-.016-.057-.032a.607.607 0 0 0-.145-.075c-.049-.016-.09-.033-.138-.04C10.605 0 10.548 0 10.5 0s-.097 0-.145.008a.507.507 0 0 0-.146.05.607.607 0 0 0-.145.074c-.016.016-.04.016-.065.033-.024.024-.04.05-.064.074-.025.025-.049.033-.073.057C8.02 2.693 2.867 4.941.808 4.941A.818.818 0 0 0 0 5.765v10.302c0 5.872 9.684 11.587 10.096 11.826.13.074.267.107.404.107a.803.803 0 0 0 .404-.107C11.316 27.654 21 21.939 21 16.067V5.748a.818.818 0 0 0-.808-.823zm-.807 11.142c0 3.887-6.074 8.425-8.885 10.154-2.81-1.73-8.885-6.267-8.885-10.154V6.522C4.2 6.152 8.343 4.184 10.5 2.026c2.157 2.15 6.3 4.11 8.885 4.48v9.561z"/>
</svg>
