<svg xmlns="http://www.w3.org/2000/svg" width="21" height="19" viewBox="0 0 21 19"><g><g><path fill="#fff" d="M10.901 4.659c0 .222-.18.403-.401.403a.402.402 0 0 1-.402-.403.402.402 0 1 1 .803 0zm-7.464 6.454c0-.222.18-.403.401-.403a.403.403 0 0 1 0 .807.403.403 0 0 1-.401-.404zm7.464 0c0 .223-.18.404-.401.404H5.443a.402.402 0 0 1-.4-.404c0-.222.179-.403.4-.403H10.5c.221 0 .401.18.401.403zm0 2.42c0 .224-.18.404-.401.404H3.838a.402.402 0 0 1-.401-.403c0-.223.18-.404.401-.404H10.5c.221 0 .401.181.401.404zm6.661-8.874c0 .223-.18.403-.4.403h-5.057a.402.402 0 0 1-.401-.403c0-.223.18-.403.4-.403h5.057c.222 0 .401.18.401.403zm2.45 7.621c.18.18.234.45.138.688a.627.627 0 0 1-.58.39 4.67 4.67 0 0 1-3.125-1.215c-.63.201-1.394.34-2.14.389-.349 3.194-3.387 5.667-7.015 5.667-.92 0-1.93-.151-2.735-.408a4.674 4.674 0 0 1-3.124 1.215.632.632 0 1 1-.445-1.079c.528-.53.754-1.306.598-2.039C.562 14.773 0 13.366 0 11.92c0-3.585 3.437-6.004 6.695-6.256.345-3.196 3.386-5.67 7.015-5.67 3.521 0 7.29 2.523 7.29 6.278 0 1.445-.562 2.852-1.584 3.969-.157.732.069 1.509.597 2.04zm-6.703-.36c0-3.004-2.815-5.244-6.02-5.244-3.393 0-6.26 2.401-6.26 5.244 0 1.233.502 2.431 1.412 3.374.046.047.08.106.098.17.23.814.134 1.673-.244 2.401a3.617 3.617 0 0 0 1.8-1.074.4.4 0 0 1 .445-.103c.723.29 1.802.476 2.75.476 3.318 0 6.019-2.352 6.019-5.244zm5.396.297a3.278 3.278 0 0 1-.245-2.4.406.406 0 0 1 .098-.171c.91-.943 1.412-2.14 1.412-3.373 0-2.843-2.867-5.245-6.26-5.245-3.168 0-5.772 2.144-6.003 4.853a7.45 7.45 0 0 1 2.987.795h6.467c.222 0 .401.18.401.403 0 .223-.18.404-.4.404h-5.235c1.294 1.064 2.05 2.498 2.168 4.024.844-.042 1.738-.216 2.364-.466a.4.4 0 0 1 .445.102 3.615 3.615 0 0 0 1.8 1.074z"/></g></g></svg>