<svg xmlns="http://www.w3.org/2000/svg" width="19" height="17" viewBox="0 0 19 17"><g><g><path fill="#fff" d="M9.863 4.168a.362.362 0 0 1-.726 0c0-.199.162-.36.363-.36.2 0 .363.161.363.36zM3.11 9.944c0-.2.162-.361.363-.361.2 0 .363.161.363.36a.362.362 0 0 1-.726 0zm6.753 0c0 .199-.163.36-.363.36H4.925a.362.362 0 0 1-.363-.36c0-.2.163-.361.363-.361H9.5c.2 0 .363.161.363.36zm0 2.165c0 .2-.163.361-.363.361H3.473a.362.362 0 0 1-.363-.36c0-.2.162-.362.363-.362H9.5c.2 0 .363.162.363.361zm6.027-7.94c0 .199-.163.36-.363.36h-4.575a.362.362 0 0 1-.363-.36c0-.2.163-.361.363-.361h4.575c.2 0 .363.161.363.36zm2.217 6.819a.563.563 0 0 1-.402.964 4.251 4.251 0 0 1-2.826-1.087c-.57.18-1.261.304-1.937.347-.315 2.859-3.064 5.072-6.347 5.072a8.64 8.64 0 0 1-2.474-.366 4.255 4.255 0 0 1-2.826 1.088.564.564 0 0 1-.403-.966c.478-.474.683-1.169.541-1.824C.508 13.218 0 11.959 0 10.666c0-3.208 3.11-5.373 6.057-5.598.313-2.86 3.064-5.074 6.347-5.074C15.59-.006 19 2.252 19 5.612c0 1.292-.508 2.551-1.433 3.55a1.99 1.99 0 0 0 .54 1.826zm-6.066-.323c0-2.688-2.547-4.692-5.446-4.692-3.07 0-5.664 2.149-5.664 4.692 0 1.103.454 2.175 1.278 3.019a.359.359 0 0 1 .088.152c.209.728.121 1.497-.22 2.149a3.28 3.28 0 0 0 1.629-.962.364.364 0 0 1 .402-.091c.654.258 1.63.426 2.487.426 3.003 0 5.446-2.105 5.446-4.693zm4.882.266a2.904 2.904 0 0 1-.221-2.148.362.362 0 0 1 .089-.152c.823-.844 1.277-1.916 1.277-3.019 0-2.543-2.594-4.692-5.664-4.692-2.866 0-5.222 1.918-5.43 4.342a6.8 6.8 0 0 1 2.701.711h5.852c.2 0 .363.162.363.361 0 .2-.163.361-.363.361H10.79c1.17.953 1.856 2.236 1.962 3.6.763-.037 1.572-.192 2.139-.417.14-.055.3-.018.402.092a3.278 3.278 0 0 0 1.63.961z"/></g></g></svg>