<svg xmlns="http://www.w3.org/2000/svg" width="21" height="19" viewBox="0 0 21 19"><g><g><path fill="#fff" d="M20.895 18.371a.558.558 0 0 1-.57.547H.676a.558.558 0 0 1-.57-.547c0-.302.255-.547.57-.547h.87v-3.952c0-.302.255-.547.57-.547h3.414c.315 0 .57.245.57.547v3.952h2.276v-6.139c0-.302.254-.546.569-.546h3.414c.315 0 .57.244.57.546v6.14h2.276V7.311c0-.302.255-.546.57-.546h3.414c.314 0 .569.244.569.546v10.512h.569c.314 0 .569.245.569.547zm-4.553-.547h2.277V7.86h-2.277zm-6.829 0h2.276v-5.592H9.513zm-6.83 0H4.96V14.42H2.684zM.765 11.867a.576.576 0 0 1-.416-.174.534.534 0 0 1 .027-.775L7.33 4.683a.58.58 0 0 1 .528-.13l5.25 1.26 4.826-4.635h-1.405a.56.56 0 0 1-.57-.548.56.56 0 0 1 .57-.548h2.782a.56.56 0 0 1 .57.548v2.672a.56.56 0 0 1-.57.548.56.56 0 0 1-.57-.548v-1.35l-5.055 4.855a.58.58 0 0 1-.541.144L7.882 5.687 1.153 11.72a.579.579 0 0 1-.389.147z"/></g></g></svg>