<svg xmlns="http://www.w3.org/2000/svg" width="37" height="21" viewBox="0 0 37 21">
    <g fill="#0068FF" fill-rule="nonzero" stroke="#0068FF" stroke-width=".3">
        <path d="M5 10.669c0-1.066-1.183-2.891-1.545-3.426a.547.547 0 0 0-.91 0C2.183 7.777 1 9.603 1 10.67 1 11.954 1.897 13 3 13s2-1.046 2-2.331zm-2.84 0c0-.3.387-1.103.84-1.867.453.763.84 1.566.84 1.867 0 .54-.377.979-.84.979-.462 0-.84-.439-.84-.979zM36 11.54C36 8.195 34.727 6.5 32.217 6.5c-.946 0-1.655.317-2.108.945-.279.387-.405.822-.457 1.217l-8.656-4.407c-.281-.145-.615-.026-.77.27l-1.921 3.704c-2.13-1.38-9.991-6.414-12.445-7.202-.287-.092-.597.067-.715.373L4.048 4.214a.717.717 0 0 0-.004.506.63.63 0 0 0 .322.36c.136.062 13.56 6.352 13.56 14.256 0 .363.267.658.597.658h9.302l.55.006c1.314 0 2.647-.413 3.152-2.946C35.515 16.822 36 13.824 36 11.54zm-7.626 7.145l-9.279-.007C18.508 11.116 7.97 5.421 5.38 4.133l.645-1.655c3.206 1.352 12.1 7.159 12.194 7.22.137.091.302.117.457.071a.61.61 0 0 0 .366-.31l1.95-3.758 9.554 4.865v3.984c0 4.135-1.204 4.135-2.172 4.135zm3.322-2.954c.026-.366.045-.752.045-1.182v-4.405a.664.664 0 0 0-.347-.596l-.575-.293c-.013-.299.022-.712.23-.998.215-.294.608-.443 1.168-.443 1.814 0 2.588 1.114 2.588 3.726 0 2.41-.544 3.969-3.109 4.19z"/>
    </g>
</svg>
