<svg xmlns="http://www.w3.org/2000/svg" width="21" height="17" viewBox="0 0 21 17"><g><g><path fill="#fff" d="M2.037 16.302a1.953 1.953 0 0 1-1.95-1.95V11.1c0-.36.29-.65.65-.65 1.075 0 1.95-.875 1.95-1.951S1.812 6.55.737 6.55a.65.65 0 0 1-.65-.65V2.647c0-1.075.875-1.95 1.95-1.95h16.905c1.076 0 1.951.875 1.951 1.95V5.9c0 .36-.29.65-.65.65-1.076 0-1.95.875-1.95 1.951s.874 1.95 1.95 1.95c.36 0 .65.291.65.65v3.252c0 1.075-.875 1.95-1.95 1.95zm-.65-1.95c0 .359.291.65.65.65h16.905a.65.65 0 0 0 .65-.65v-2.666a3.257 3.257 0 0 1-2.6-3.186 3.257 3.257 0 0 1 2.6-3.186V2.648a.65.65 0 0 0-.65-.65H2.037a.65.65 0 0 0-.65.65v2.666a3.257 3.257 0 0 1 2.6 3.186 3.257 3.257 0 0 1-2.6 3.186zm6.544-.888l3.9-10.4 1.217.457-3.9 10.4zM5.463 6.768c0-1.075.875-1.95 1.95-1.95 1.076 0 1.951.875 1.951 1.95 0 1.076-.875 1.95-1.95 1.95a1.953 1.953 0 0 1-1.95-1.95zm1.3 0a.65.65 0 1 0 1.302 0 .65.65 0 0 0-1.301 0zm5.421 4.033c0-1.076.875-1.95 1.95-1.95 1.076 0 1.951.874 1.951 1.95 0 1.075-.875 1.95-1.95 1.95a1.953 1.953 0 0 1-1.95-1.95zm1.3 0a.65.65 0 1 0 1.302 0 .65.65 0 0 0-1.302 0z"/></g></g></svg>