<svg xmlns="http://www.w3.org/2000/svg" width="42" height="42" viewBox="0 0 42 42">
    <g fill="#FFF" fill-rule="evenodd" stroke="#FFF">
        <circle cx="21" cy="21" r="20.5" fill-opacity=".13" stroke-opacity=".047"/>
        <path stroke-width=".525" d="M9.516 12a.59.59 0 0 0-.516.598v14.399c-.001.333.257.604.575.602h1.77C11.612 28.964 12.772 30 14.147 30s2.53-1.036 2.796-2.401h8.115c.267 1.365 1.426 2.401 2.8 2.401 1.376 0 2.53-1.036 2.797-2.401h1.776c.315-.001.57-.271.569-.602V19.8c0-.16-.06-.312-.169-.425l-4.567-4.8a.558.558 0 0 0-.405-.174H23.86v-1.803c-.001-.33-.258-.598-.573-.597H9.575a.543.543 0 0 0-.06 0zm.628 1.2h12.573V26.4h-5.772c-.266-1.366-1.422-2.4-2.798-2.4-1.376 0-2.537 1.034-2.803 2.4h-1.2V13.201zm13.716 2.402h3.762l4.235 4.446v6.351h-1.2c-.266-1.366-1.422-2.4-2.798-2.4-1.376 0-2.536 1.034-2.802 2.4H23.86v-6h3.998v-1.2H23.86v-3.597zm-9.713 9.597c.953 0 1.712.796 1.712 1.798 0 1-.759 1.803-1.712 1.803-.954 0-1.718-.802-1.718-1.803 0-1.002.764-1.798 1.718-1.798zm13.712 0c.953 0 1.712.796 1.712 1.798 0 1-.759 1.803-1.712 1.803-.954 0-1.718-.802-1.718-1.803 0-1.002.764-1.798 1.718-1.798z"/>
    </g>
</svg>
